# xmcd
#
# Track frame offsets: 
#        150
#        14880
#        28860
#        48722
#        63708
#        74587
#
# Disc length: 1166 seconds
#
# Revision: 0
# Processed by: cddbd v1.5.2PL0 Copyright (c) Steve Scherf et al.
# Submitted via: ExactAudioCopy v0.99pb4
#
DISCID=61048c06
DTITLE=Corinne Chapman - Dirty Pretty Things
DYEAR=2010
DGENRE=Country
TTITLE0=Mine
TTITLE1=Be Good To Me
TTITLE2=Dirty Pretty Things
TTITLE3=Alone
TTITLE4=Paper Doll
TTITLE5=Weeds
EXTD=
EXTT0=
EXTT1=
EXTT2=
EXTT3=
EXTT4=
EXTT5=
PLAYORDER=
